<svg width="19" height="17" viewBox="0 0 19 17" fill="none" xmlns="http://www.w3.org/2000/svg">
<path d="M0.5 0.75C0.5 0.34375 0.8125 0 1.25 0H2.65625C3.5 0 4.21875 0.625 4.375 1.4375L5.53125 7.5H14.8438C15.1875 7.5 15.4688 7.28125 15.5625 6.96875L17 1.5625C17.125 1.15625 17.5312 0.9375 17.9375 1.03125C18.3438 1.15625 18.5625 1.5625 18.4688 1.96875L17 7.34375C16.75 8.34375 15.8438 9 14.8438 9H5.8125L6 9.90625C6.0625 10.25 6.375 10.5 6.71875 10.5H15.75C16.1562 10.5 16.5 10.8438 16.5 11.25C16.5 11.6875 16.1562 12 15.75 12H6.71875C5.65625 12 4.71875 11.25 4.53125 10.1875L2.90625 1.71875C2.875 1.59375 2.78125 1.5 2.65625 1.5H1.25C0.8125 1.5 0.5 1.1875 0.5 0.75ZM4.5 14.5C4.5 13.9688 4.78125 13.5 5.25 13.2188C5.6875 12.9375 6.28125 12.9375 6.75 13.2188C7.1875 13.5 7.5 13.9688 7.5 14.5C7.5 15.0625 7.1875 15.5312 6.75 15.8125C6.28125 16.0938 5.6875 16.0938 5.25 15.8125C4.78125 15.5312 4.5 15.0625 4.5 14.5ZM15 13C15.5312 13 16 13.3125 16.2812 13.75C16.5625 14.2188 16.5625 14.8125 16.2812 15.25C16 15.7188 15.5312 16 15 16C14.4375 16 13.9688 15.7188 13.6875 15.25C13.4062 14.8125 13.4062 14.2188 13.6875 13.75C13.9688 13.3125 14.4375 13 15 13ZM11.25 0.75V3.96875L11.9688 3.25C12.25 2.9375 12.7188 2.9375 13 3.25C13.3125 3.53125 13.3125 4 13 4.28125L11 6.28125C10.7188 6.59375 10.25 6.59375 9.96875 6.28125L7.96875 4.28125C7.65625 4 7.65625 3.53125 7.96875 3.25C8.25 2.9375 8.71875 2.9375 9 3.25L9.71875 3.96875V0.75C9.71875 0.34375 10.0625 0 10.4688 0C10.9062 0 11.2188 0.34375 11.2188 0.75H11.25Z" fill="#0958B5"/>
</svg>
