<svg width="10" height="13" viewBox="0 0 10 13" fill="none" xmlns="http://www.w3.org/2000/svg">
<path d="M7.92969 1.55469L6.125 5.77344H8.75C9.05469 5.77344 9.33594 5.96094 9.45312 6.24219C9.54688 6.54688 9.47656 6.875 9.24219 7.08594L3.24219 12.3359C2.96094 12.5469 2.58594 12.5703 2.30469 12.3594C2.02344 12.1719 1.90625 11.7969 2.04688 11.4688L3.85156 7.25H1.25C0.921875 7.25 0.640625 7.0625 0.546875 6.78125C0.429688 6.47656 0.5 6.14844 0.734375 5.9375L6.73438 0.6875C7.01562 0.476562 7.39062 0.453125 7.67188 0.664062C7.95312 0.851562 8.07031 1.22656 7.92969 1.55469Z" fill="#FAFAFA" style="mix-blend-mode:luminosity"/>
</svg>
