<svg width="20" height="16" viewBox="0 0 20 16" fill="none" xmlns="http://www.w3.org/2000/svg">
<path d="M0 5.8125C0 5.625 0.03125 5.4375 0.125 5.25L2.5625 0.78125C2.8125 0.3125 3.3125 0 3.875 0H16.0938C16.6562 0 17.1562 0.3125 17.4062 0.78125L19.8438 5.25C19.9375 5.40625 20 5.625 20 5.8125C20 6.46875 19.4375 7 18.7812 7H18V15.25C18 15.6875 17.6562 16 17.25 16C16.8125 16 16.5 15.6875 16.5 15.25V7H12V14.75C12 15.4688 11.4375 16 10.75 16H3.25C2.53125 16 2 15.4688 2 14.75V7H1.1875C0.53125 7 0 6.46875 0 5.8125ZM3.5 7V10H10.5V7H3.5ZM16.0938 1.5H3.875L1.6875 5.5H18.2812L16.0938 1.5ZM3.5 14.5H10.5V11.5H3.5V14.5Z" fill="#E4E4E7"/>
</svg>
