<svg width="20" height="21" viewBox="0 0 20 21" fill="none" xmlns="http://www.w3.org/2000/svg">
<path d="M18.75 10.5C18.75 7.375 17.0703 4.52344 14.375 2.96094C11.6406 1.35938 8.32031 1.35938 5.625 2.96094C2.89062 4.52344 1.25 7.375 1.25 10.5C1.25 13.6641 2.89062 16.5156 5.625 18.0781C8.32031 19.6797 11.6406 19.6797 14.375 18.0781C17.0703 16.5156 18.75 13.6641 18.75 10.5ZM0 10.5C0 6.94531 1.875 3.66406 5 1.86719C8.08594 0.0703125 11.875 0.0703125 15 1.86719C18.0859 3.66406 20 6.94531 20 10.5C20 14.0938 18.0859 17.375 15 19.1719C11.875 20.9688 8.08594 20.9688 5 19.1719C1.875 17.375 0 14.0938 0 10.5ZM6.5625 7.14062C6.83594 6.20312 7.69531 5.5 8.67188 5.5H10.9375C12.3047 5.5 13.4375 6.63281 13.4375 8.03906C13.4375 8.97656 12.8906 9.83594 12.0703 10.2656L10.625 11.0078V11.75C10.625 12.1016 10.3125 12.375 10 12.375C9.64844 12.375 9.375 12.1016 9.375 11.75V10.6172C9.375 10.3828 9.49219 10.1484 9.6875 10.0703L11.4844 9.13281C11.9141 8.9375 12.1875 8.50781 12.1875 8.03906C12.1875 7.33594 11.6016 6.75 10.9375 6.75H8.67188C8.28125 6.75 7.89062 7.0625 7.77344 7.45312V7.49219C7.69531 7.80469 7.34375 8.03906 7.03125 7.92188C6.67969 7.84375 6.48438 7.49219 6.5625 7.17969V7.14062ZM9.0625 14.25C9.0625 13.7422 9.45312 13.3125 10 13.3125C10.5078 13.3125 10.9375 13.7422 10.9375 14.25C10.9375 14.7969 10.5078 15.1875 10 15.1875C9.45312 15.1875 9.0625 14.7969 9.0625 14.25Z" fill="white"/>
</svg>
